<svg xmlns="http://www.w3.org/2000/svg" xmlns:cc="https://creativecommons.org/ns#" xmlns:dc="https://purl.org/dc/elements/1.1/" xmlns:xlink="http://www.w3.org/1999/xlink" width="512" height="256" version="1.0"><defs><linearGradient id="linearGradient3032" x1="12.531" x2="9.995" y1="21.024" y2="1.836" gradientTransform="matrix(3.7536097,0,0,3.2312663,-6.5153492,-7.537471)" gradientUnits="userSpaceOnUse"><stop style="stop-color:#2e3436" offset="0"/><stop style="stop-color:#888a85" offset="1"/></linearGradient><linearGradient id="linearGradient3042" x1="12.531" x2="9.995" y1="21.024" y2="1.836" gradientTransform="matrix(3.5997954,0,0,3.5997954,562.18204,242.11814)" gradientUnits="userSpaceOnUse"><stop style="stop-color:#888a85" offset="0"/><stop style="stop-color:#eeeeec" offset="1"/></linearGradient><linearGradient id="linearGradient3044" x1="4.551" x2="16.46" y1="4.063" y2="18.706" gradientTransform="matrix(3.78173,0,0,3.78173,560.27071,240.20357)" gradientUnits="userSpaceOnUse"><stop style="stop-color:#eeeeec" offset="0"/><stop style="stop-color:#eeeeec;stop-opacity:0" offset="1"/></linearGradient></defs><metadata/><g id="g1000"><path style="stroke-linejoin:miter;stroke:#2e3436;stroke-linecap:round;stroke-miterlimit:4;stroke-dasharray:none;stroke-width:1.93490958;fill:url(#linearGradient3032)" d="M70.457,26.466c0,17.847-16.807,32.315-37.538,32.315-20.732,0-37.538-14.468-37.538-32.315,0-17.846,16.806-32.314,37.538-32.314,20.731,0,37.538,14.468,37.538,32.314z" transform="matrix(0.7056258,0,0,0.8153927,72.351576,10.187956)"/></g><g id="g1010"><path style="stroke-linejoin:miter;stroke:#888a85;stroke-linecap:round;stroke-miterlimit:4;stroke-dasharray:none;stroke-width:2.00042057;fill:url(#linearGradient3042)" d="M636,280c0,19.88-16.12,36-36,36s-36-16.12-36-36,16.12-36,36-36,36,16.12,36,36z" transform="matrix(0.7356317,0,0,0.7244548,-345.8347,-171.37861)"/><path style="stroke-linejoin:miter;stroke:url(#linearGradient3044);stroke-linecap:round;stroke-miterlimit:4;stroke-dasharray:none;stroke-width:2.00179124;fill:none" d="M634,280c0,18.78-15.22,34-34,34s-34-15.22-34-34,15.22-34,34-34,34,15.22,34,34z" transform="matrix(0.7356317,0,0,0.7244548,-345.8347,-171.37861)"/></g><path id="path1020" d="M59,32a27,27,0,1,1,-54,0,27,27,0,1,1,54,0z" transform="matrix(1,0,0,0.9923454,64,3.8272934e-2)" style="stroke-opacity:0;stroke-miterlimit:4;fill:#000"/><path id="path1030" d="M59,32a27,27,0,1,1,-54,0,27,27,0,1,1,54,0z" transform="matrix(1.0000071,0,0,0.992356,63.999773,3.7932977e-2)" style="stroke-dashoffset:0;stroke:#000;stroke-miterlimit:4;stroke-dasharray:none;stroke-width:.1;fill:#f0f0ff"/><g transform="matrix(0.7113015,0.7057827,-0.7113015,0.7057827,50.246986,-58.391697)"><use width="512" height="256" x="0" y="0" xlink:href="#path1030"/><use width="512" height="256" x="0" y="0" xlink:href="#g1000"/></g><g transform="matrix(0.6977108,0.703,-0.7016807,0.707,115.24632,-59.2)"><use width="512" height="256" x="0" y="0" xlink:href="#g1000"/></g><g transform="matrix(0.692,0.692,-0.707,0.707,180,-58.8)"><use width="512" height="256" x="0" y="0" transform="translate(-0.5,0)" xlink:href="#path1030"/><use width="512" height="256" x="0" y="0" xlink:href="#g1000"/></g><g transform="matrix(0.672,0.672,-0.707,0.707,246,-57.2)"><use width="512" height="256" x="0" y="0" transform="translate(-0.5,0)" xlink:href="#path1030"/><use width="512" height="256" x="0" y="0" xlink:href="#path1020"/><use width="512" height="256" x="0" y="0" transform="translate(0.5,0)" xlink:href="#g1000"/></g><g transform="matrix(0.646,0.646,-0.707,0.707,312.5,-55.3)"><use width="512" height="256" x="0" y="0" transform="translate(-0.5,0)" xlink:href="#path1030"/><use width="512" height="256" x="0" y="0" xlink:href="#path1020"/><use width="512" height="256" x="0" y="0" transform="translate(1,0)" xlink:href="#g1000"/></g><g transform="matrix(0.612,0.612,-0.707,0.707,380,-52.8)"><use width="512" height="256" x="0" y="0" transform="translate(-1,0)" xlink:href="#path1030"/><use width="512" height="256" x="0" y="0" xlink:href="#path1020"/><use width="512" height="256" x="0" y="0" transform="translate(1.5,0)" xlink:href="#g1000"/></g><g transform="matrix(0.572,0.572,-0.707,0.707,447.7,-49.6)"><use width="512" height="256" x="0" y="0" transform="translate(-1,0)" xlink:href="#path1030"/><use width="512" height="256" x="0" y="0" xlink:href="#path1020"/><use width="512" height="256" x="0" y="0" transform="translate(2,0)" xlink:href="#g1000"/></g><g transform="matrix(0.525,0.525,-0.707,0.707,4.2,18.3)"><use width="512" height="256" x="0" y="0" transform="translate(-1.5,0)" xlink:href="#path1030"/><use width="512" height="256" x="0" y="0" xlink:href="#path1020"/><use width="512" height="256" x="0" y="0" transform="translate(2.5,0)" xlink:href="#g1000"/></g><g transform="matrix(0.473,0.473,-0.707,0.707,73.5,22.8)"><use width="512" height="256" x="0" y="0" transform="translate(-2,0)" xlink:href="#path1030"/><use width="512" height="256" x="0" y="0" xlink:href="#path1020"/><use width="512" height="256" x="0" y="0" transform="translate(3,0)" xlink:href="#g1000"/></g><g transform="matrix(0.416,0.416,-0.707,0.707,143,27.8)"><use width="512" height="256" x="0" y="0" transform="translate(-3,0)" xlink:href="#path1030"/><use width="512" height="256" x="0" y="0" xlink:href="#path1020"/><use width="512" height="256" x="0" y="0" transform="translate(4,0)" xlink:href="#g1000"/></g><g transform="matrix(0.354,0.354,-0.707,0.707,212.7,33.4)"><use width="512" height="256" x="0" y="0" transform="translate(-4,0)" xlink:href="#path1030"/><use width="512" height="256" x="0" y="0" xlink:href="#path1020"/><use width="512" height="256" x="0" y="0" transform="translate(5,0)" xlink:href="#g1000"/></g><g transform="matrix(0.288,0.288,-0.707,0.707,283,39.3)"><use width="512" height="256" x="0" y="0" transform="translate(-4,0)" xlink:href="#path1030"/><use width="512" height="256" x="0" y="0" xlink:href="#path1020"/><use width="512" height="256" x="0" y="0" transform="translate(6,0)" xlink:href="#g1000"/></g><g transform="matrix(0.218,0.218,-0.707,0.707,353.7,45.8)"><use width="512" height="256" x="0" y="0" transform="translate(-6,0)" xlink:href="#path1030"/><use width="512" height="256" x="0" y="0" xlink:href="#path1020"/><use width="512" height="256" x="0" y="0" transform="translate(8,0)" xlink:href="#g1000"/></g><g transform="matrix(0.147,0.147,-0.707,0.707,424.5,52.5)"><use width="512" height="256" x="0" y="0" transform="translate(-12,0)" xlink:href="#path1030"/><use width="512" height="256" x="0" y="0" transform="translate(-6,0)" xlink:href="#path1030"/><use width="512" height="256" x="0" y="0" xlink:href="#path1020"/><use width="512" height="256" x="0" y="0" transform="translate(6,0)" xlink:href="#path1020"/><use width="512" height="256" x="0" y="0" transform="translate(12,0)" xlink:href="#g1000"/></g><g transform="matrix(7.4e-2,7.4e-2,-0.707,0.707,495.5,59.3)"><use width="512" height="256" x="0" y="0" transform="translate(-24,0)" xlink:href="#path1030"/><use width="512" height="256" x="0" y="0" transform="translate(-12,0)" xlink:href="#path1030"/><use width="512" height="256" x="0" y="0" xlink:href="#path1020"/><use width="512" height="256" x="0" y="0" transform="translate(12,0)" xlink:href="#path1020"/><use width="512" height="256" x="0" y="0" transform="translate(24,0)" xlink:href="#g1000"/></g><g transform="translate(0,119)"><rect style="stroke-dashoffset:0;stroke:#000;stroke-dasharray:none;stroke-miterlimit:4;stroke-width:.05000006;fill:#1a1a1a" width="2.8" height="54" x="45.5" y="-27" transform="matrix(0.707107,0.707107,-0.707107,0.707107,0,0)"/><rect style="stroke-dashoffset:0;stroke:#000;stroke-dasharray:none;stroke-miterlimit:4;stroke-width:.05;fill:#f0f0ff" width="2.8" height="54" x="43" y="-27" transform="matrix(0.707107,0.707107,-0.707107,0.707107,0,0)"/></g><g transform="matrix(7.4e-2,7.4e-2,-0.707,0.707,111.5,123.3)"><use width="512" height="256" x="0" y="0" transform="translate(24,0)" xlink:href="#path1020"/><use width="512" height="256" x="0" y="0" transform="translate(12,0)" xlink:href="#path1020"/><use width="512" height="256" x="0" y="0" xlink:href="#path1030"/><use width="512" height="256" x="0" y="0" transform="translate(-12,0)" xlink:href="#path1030"/><use width="512" height="256" x="0" y="0" transform="translate(-24,0)" xlink:href="#g1010"/></g><g transform="matrix(0.147,0.147,-0.707,0.707,168.5,116.5)"><use width="512" height="256" x="0" y="0" transform="translate(12,0)" xlink:href="#path1020"/><use width="512" height="256" x="0" y="0" transform="translate(6,0)" xlink:href="#path1020"/><use width="512" height="256" x="0" y="0" xlink:href="#path1030"/><use width="512" height="256" x="0" y="0" transform="translate(-6,0)" xlink:href="#path1030"/><use width="512" height="256" x="0" y="0" transform="translate(-12,0)" xlink:href="#g1010"/></g><g transform="matrix(0.218,0.218,-0.707,0.707,225.7,109.8)"><use width="512" height="256" x="0" y="0" transform="translate(8,0)" xlink:href="#path1020"/><use width="512" height="256" x="0" y="0" xlink:href="#path1030"/><use width="512" height="256" x="0" y="0" transform="translate(-7,0)" xlink:href="#g1010"/></g><g transform="matrix(0.288,0.288,-0.707,0.707,283,103.3)"><use width="512" height="256" x="0" y="0" transform="translate(6,0)" xlink:href="#path1020"/><use width="512" height="256" x="0" y="0" xlink:href="#path1030"/><use width="512" height="256" x="0" y="0" transform="translate(-5,0)" xlink:href="#g1010"/></g><g transform="matrix(0.354,0.354,-0.707,0.707,340.7,97.4)"><use width="512" height="256" x="0" y="0" transform="translate(5,0)" xlink:href="#path1020"/><use width="512" height="256" x="0" y="0" xlink:href="#path1030"/><use width="512" height="256" x="0" y="0" transform="translate(-4,0)" xlink:href="#g1010"/></g><g transform="matrix(0.416,0.416,-0.707,0.707,399,91.8)"><use width="512" height="256" x="0" y="0" transform="translate(4,0)" xlink:href="#path1020"/><use width="512" height="256" x="0" y="0" xlink:href="#path1030"/><use width="512" height="256" x="0" y="0" transform="translate(-3,0)" xlink:href="#g1010"/></g><g transform="matrix(0.473,0.473,-0.707,0.707,457.3,86.8)"><use width="512" height="256" x="0" y="0" transform="translate(3,0)" xlink:href="#path1020"/><use width="512" height="256" x="0" y="0" xlink:href="#path1030"/><use width="512" height="256" x="0" y="0" transform="translate(-2,0)" xlink:href="#g1010"/></g><g transform="matrix(0.525,0.525,-0.707,0.707,4.2,146.3)"><use width="512" height="256" x="0" y="0" transform="translate(2.5,0)" xlink:href="#path1020"/><use width="512" height="256" x="0" y="0" xlink:href="#path1030"/><use width="512" height="256" x="0" y="0" transform="translate(-1.5,0)" xlink:href="#g1010"/></g><g transform="matrix(0.572,0.572,-0.707,0.707,63.7,142.4)"><use width="512" height="256" x="0" y="0" transform="translate(2,0)" xlink:href="#path1020"/><use width="512" height="256" x="0" y="0" xlink:href="#path1030"/><use width="512" height="256" x="0" y="0" transform="translate(-1.5,0)" xlink:href="#g1010"/></g><g transform="matrix(0.612,0.612,-0.707,0.707,124,139.2)"><use width="512" height="256" x="0" y="0" transform="translate(1.5,0)" xlink:href="#path1020"/><use width="512" height="256" x="0" y="0" xlink:href="#path1030"/><use width="512" height="256" x="0" y="0" transform="translate(-1,0)" xlink:href="#g1010"/></g><g transform="matrix(0.646,0.646,-0.707,0.707,184.5,136.7)"><use width="512" height="256" x="0" y="0" transform="translate(1.5,0)" xlink:href="#path1020"/><use width="512" height="256" x="0" y="0" xlink:href="#path1030"/><use width="512" height="256" x="0" y="0" transform="translate(-1,0)" xlink:href="#g1010"/></g><g transform="matrix(0.672,0.672,-0.707,0.707,246,134.8)"><use width="512" height="256" x="0" y="0" transform="translate(1.5,0)" xlink:href="#path1020"/><use width="512" height="256" x="0" y="0" xlink:href="#path1030"/><use width="512" height="256" x="0" y="0" transform="translate(-0.5,0)" xlink:href="#g1010"/></g><g transform="matrix(0.692,0.692,-0.707,0.707,308,133.2)"><use width="512" height="256" x="0" y="0" transform="translate(1,0)" xlink:href="#path1020"/><use width="512" height="256" x="0" y="0" xlink:href="#path1030"/><use width="512" height="256" x="0" y="0" transform="translate(-0.5,0)" xlink:href="#g1010"/></g><g transform="matrix(0.698525,0.703,-0.7024995,0.707,370.81451,132.8)"><use width="512" height="256" x="0" y="0" transform="translate(1,0)" xlink:href="#path1020"/><use width="512" height="256" x="0" y="0" transform="translate(0.5,0)" xlink:href="#path1030"/><use width="512" height="256" x="0" y="0" xlink:href="#g1010"/></g><g transform="matrix(0.707,0.707,-0.707,0.707,434.5,133.5)"><use width="512" height="256" x="0" y="0" transform="translate(0.5,0)" xlink:href="#path1020"/><use width="512" height="256" x="0" y="0" xlink:href="#g1010"/></g></svg>