<svg xmlns="http://www.w3.org/2000/svg" xmlns:cc="https://creativecommons.org/ns#" xmlns:dc="https://purl.org/dc/elements/1.1/" xmlns:rdf="https://www.w3.org/1999/02/22-rdf-syntax-ns#" xmlns:svg="https://www.w3.org/2000/svg" id="svg2" width="16" height="8" version="1.0"><circle cx="3" cy="1" r=".8" style="fill:#3f3f3f"/><circle cx="3" cy="1" r="0" style="fill:#e0e0e0"/><circle cx="5" cy="1" r=".8" style="fill:#3f3f3f"/><circle cx="5" cy="1" r=".02" style="fill:#e0e0e0"/><circle cx="7" cy="1" r=".8" style="fill:#3f3f3f"/><circle cx="7" cy="1" r=".04" style="fill:#e0e0e0"/><circle cx="9" cy="1" r=".8" style="fill:#3f3f3f"/><circle cx="9" cy="1" r=".06" style="fill:#e0e0e0"/><circle cx="11" cy="1" r=".8" style="fill:#3f3f3f"/><circle cx="11" cy="1" r=".08" style="fill:#e0e0e0"/><circle cx="13" cy="1" r=".8" style="fill:#3f3f3f"/><circle cx="13" cy="1" r=".1" style="fill:#e0e0e0"/><circle cx="15" cy="1" r=".8" style="fill:#3f3f3f"/><circle cx="15" cy="1" r=".12" style="fill:#e0e0e0"/><circle cx="1" cy="3" r=".8" style="fill:#3f3f3f"/><circle cx="1" cy="3" r=".14" style="fill:#e0e0e0"/><circle cx="3" cy="3" r=".8" style="fill:#3f3f3f"/><circle cx="3" cy="3" r=".16" style="fill:#e0e0e0"/><circle cx="5" cy="3" r=".8" style="fill:#3f3f3f"/><circle cx="5" cy="3" r=".18" style="fill:#e0e0e0"/><circle cx="7" cy="3" r=".8" style="fill:#3f3f3f"/><circle cx="7" cy="3" r=".2" style="fill:#e0e0e0"/><circle cx="9" cy="3" r=".8" style="fill:#3f3f3f"/><circle cx="9" cy="3" r=".22" style="fill:#e0e0e0"/><circle cx="11" cy="3" r=".8" style="fill:#3f3f3f"/><circle cx="11" cy="3" r=".24" style="fill:#e0e0e0"/><circle cx="13" cy="3" r=".8" style="fill:#3f3f3f"/><circle cx="13" cy="3" r=".26" style="fill:#e0e0e0"/><circle cx="15" cy="3" r=".8" style="fill:#3f3f3f"/><circle cx="15" cy="3" r=".28" style="fill:#e0e0e0"/><circle cx="1" cy="5" r=".8" style="fill:#3f3f3f"/><circle cx="1" cy="5" r=".3" style="fill:#e0e0e0"/><circle cx="3" cy="5" r=".8" style="fill:#3f3f3f"/><circle cx="3" cy="5" r=".32" style="fill:#e0e0e0"/><circle cx="5" cy="5" r=".8" style="fill:#3f3f3f"/><circle cx="5" cy="5" r=".34" style="fill:#e0e0e0"/><circle cx="7" cy="5" r=".8" style="fill:#3f3f3f"/><circle cx="7" cy="5" r=".36" style="fill:#e0e0e0"/><circle cx="9" cy="5" r=".8" style="fill:#3f3f3f"/><circle cx="9" cy="5" r=".38" style="fill:#e0e0e0"/><circle cx="11" cy="5" r=".8" style="fill:#3f3f3f"/><circle cx="11" cy="5" r=".4" style="fill:#e0e0e0"/><circle cx="13" cy="5" r=".8" style="fill:#3f3f3f"/><circle cx="13" cy="5" r=".42" style="fill:#e0e0e0"/><circle cx="15" cy="5" r=".8" style="fill:#3f3f3f"/><circle cx="15" cy="5" r=".44" style="fill:#e0e0e0"/><circle cx="1" cy="7" r=".8" style="fill:#3f3f3f"/><circle cx="1" cy="7" r=".46" style="fill:#e0e0e0"/><circle cx="3" cy="7" r=".8" style="fill:#3f3f3f"/><circle cx="3" cy="7" r=".48" style="fill:#e0e0e0"/><circle cx="5" cy="7" r=".8" style="fill:#3f3f3f"/><circle cx="5" cy="7" r=".5" style="fill:#e0e0e0"/><circle cx="7" cy="7" r=".8" style="fill:#3f3f3f"/><circle cx="7" cy="7" r=".52" style="fill:#e0e0e0"/><circle cx="9" cy="7" r=".8" style="fill:#3f3f3f"/><circle cx="9" cy="7" r=".54" style="fill:#e0e0e0"/><circle cx="11" cy="7" r=".8" style="fill:#3f3f3f"/><circle cx="11" cy="7" r=".56" style="fill:#e0e0e0"/><circle cx="13" cy="7" r=".8" style="fill:#3f3f3f"/><circle cx="13" cy="7" r=".58" style="fill:#e0e0e0"/><circle cx="15" cy="7" r=".8" style="fill:#3f3f3f"/><circle cx="15" cy="7" r=".6" style="fill:#e0e0e0"/></svg>