<svg xmlns="http://www.w3.org/2000/svg" xmlns:cc="https://creativecommons.org/ns#" xmlns:dc="https://purl.org/dc/elements/1.1/" xmlns:xlink="http://www.w3.org/1999/xlink" width="512" height="256" version="1.0"><defs><clipPath id="clipPath3843-0" clipPathUnits="userSpaceOnUse"><path style="stroke-linejoin:miter;enable-background:accumulate;stroke-dashoffset:0;stroke:#000;stroke-linecap:butt;stroke-miterlimit:4;stroke-dasharray:none;stroke-width:.67948717;fill:none" d="m-107,103.5a79.5,79.5,0,1,1,-159,0,79.5,79.5,0,1,1,159,0z" transform="matrix(1.4716981,0,0,1.4716981,403.4717,15.67924)"/></clipPath><radialGradient id="radialGradient4731" cx="-216.35" cy="30.086" r="79.5" gradientTransform="matrix(2.1078717,0,0,1.6491265,239.69175,-19.529488)" gradientUnits="userSpaceOnUse"><stop style="stop-color:#fff" offset="0"/><stop style="stop-color:#d3d7cf" offset="1"/></radialGradient><linearGradient id="linearGradient4733" x1="-168.69" x2="-204.31" y1="169.96" y2="37.037" gradientUnits="userSpaceOnUse"><stop style="stop-color:#2e3436" offset="0"/><stop style="stop-color:#d3d7cf" offset="1"/></linearGradient><filter id="filter5723-0" color-interpolation-filters="sRGB"><feGaussianBlur stdDeviation="2.434"/></filter><radialGradient id="radialGradient4735" cx="-186.5" cy="234.36" r="76.5" gradientTransform="matrix(1.6217398,0,0,0.83173783,431.45448,98.561646)" gradientUnits="userSpaceOnUse" xlink:href="#linearGradient5734-1"/><linearGradient id="linearGradient5734-1"><stop style="stop-color:#fff" offset="0"/><stop style="stop-color:#fff;stop-opacity:0" offset="1"/></linearGradient><radialGradient id="radialGradient4737" cx="-186.5" cy="234.36" r="76.5" gradientTransform="matrix(1.1019514,0,0,-0.5651552,19.01394,151.21372)" gradientUnits="userSpaceOnUse" xlink:href="#linearGradient5734-1"/><filter id="filter5750-9" color-interpolation-filters="sRGB"><feGaussianBlur stdDeviation="1.476"/></filter><filter id="filter5186-0" color-interpolation-filters="sRGB"><feGaussianBlur stdDeviation=".492"/></filter><clipPath id="clipPath5084-4" clipPathUnits="userSpaceOnUse"><path style="enable-background:new;color:#bebebe;stroke:#000;stroke-width:1.78124988;fill:none" d="m-1449.7,307.58-8.7457-4.1139-6.3164,7.3155-4.6573-8.4688-9.41,2.2057,1.21-9.589-8.9093-3.7466,6.6151-7.0464-5.0055-8.2678,9.4935-1.8124,0.8102-9.631,8.7457,4.1139,6.3164-7.3155,4.6573,8.4688,9.41-2.2057-1.21,9.589,8.9093,3.7466-6.6151,7.0464,5.0055,8.2678-9.4935,1.8124z" transform="matrix(1.5055475,-0.40341024,0.40341024,1.5055475,2174.0736,-924.6638)"/></clipPath><radialGradient id="radialGradient4739" cx="-1465.7" cy="272.05" r="24.371" gradientTransform="matrix(3.2994343,0.88408072,-0.5130607,1.9147686,3510.0925,1045.5977)" gradientUnits="userSpaceOnUse"><stop style="stop-color:#fff" offset="0"/><stop style="stop-color:#edd400" offset=".5"/><stop style="stop-color:#fce94f" offset="1"/></radialGradient><filter id="filter5088-5" color-interpolation-filters="sRGB"><feGaussianBlur stdDeviation=".246"/></filter><radialGradient id="radialGradient4741" cx="-1462.1" cy="286" r="23.29" gradientTransform="matrix(2.8900635,1.668579,-0.51633705,0.89432201,2911.1814,2469.8949)" gradientUnits="userSpaceOnUse"><stop style="stop-color:#fff" offset="0"/><stop style="stop-color:#fff;stop-opacity:0" offset="1"/></radialGradient><radialGradient id="radialGradient4743" cx="-1479.2" cy="255.47" r="35.051" gradientTransform="matrix(1.9214543,-1.3190971e-7,1.20377e-7,1.7534638,1362.9748,-192.48419)" gradientUnits="userSpaceOnUse"><stop style="stop-color:#fff" offset="0"/><stop style="stop-color:#fff" offset=".316"/><stop style="stop-color:#fce94f" offset=".783"/><stop style="stop-color:#dbc400" offset="1"/></radialGradient><clipPath id="clipPath3843-4-4" clipPathUnits="userSpaceOnUse"><path style="stroke-linejoin:miter;enable-background:accumulate;stroke-dashoffset:0;stroke:#000;stroke-linecap:butt;stroke-miterlimit:4;stroke-dasharray:none;stroke-width:.67948717;fill:none" d="m-107,103.5a79.5,79.5,0,1,1,-159,0,79.5,79.5,0,1,1,159,0z" transform="matrix(1.4716981,0,0,1.4716981,403.4717,15.67924)"/></clipPath><radialGradient id="radialGradient6380" cx="-232.88" cy="28.875" r="79.5" gradientTransform="matrix(1.6875,0,0,1.6875,160.10157,-19.851561)" gradientUnits="userSpaceOnUse"><stop style="stop-color:#888a85" offset="0"/><stop style="stop-color:#2e3436" offset="1"/></radialGradient><filter id="filter5723-5-5" color-interpolation-filters="sRGB"><feGaussianBlur stdDeviation="2.434"/></filter><filter id="filter5750-6-6" color-interpolation-filters="sRGB"><feGaussianBlur stdDeviation="1.476"/></filter><filter id="filter5422-7" color-interpolation-filters="sRGB"><feGaussianBlur stdDeviation=".684"/></filter><clipPath id="clipPath5380-6" clipPathUnits="userSpaceOnUse"><path style="enable-background:new;color:#bebebe;stroke:#000;stroke-width:1.78124988;fill:none" d="m-1935.7,69.586-10.503-12.688-16.296,2.4014,8.8218-13.91-7.3194-14.756,15.955,4.0916,11.772-11.521,1.0391,16.439,14.595,7.6355-15.313,6.0681z" transform="matrix(1.4108167,0,0,1.4108167,2940.806,31.102438)"/></clipPath><radialGradient id="radialGradient6386" cx="-1938.7" cy="26.981" r="23.495" gradientTransform="matrix(-3.5386499,0.94817644,-0.50227764,-1.8745296,-8788.9152,1915.2169)" gradientUnits="userSpaceOnUse"><stop style="stop-color:#fff" offset="0"/><stop style="stop-color:#edd400" offset=".388"/><stop style="stop-color:#c4a000" offset=".661"/><stop style="stop-color:#edd400" offset="1"/></radialGradient><radialGradient id="radialGradient6388" cx="-1940.9" cy="42.331" r="22.432" gradientTransform="matrix(1.3796012,-0.36966304,0.29513678,1.1014655,723.12325,-721.97079)" gradientUnits="userSpaceOnUse"><stop style="stop-color:#fff" offset="0"/><stop style="stop-color:#fff" offset=".316"/><stop style="stop-color:#fce94f" offset=".783"/><stop style="stop-color:#dbc400" offset="1"/></radialGradient><filter id="filter5396-6" color-interpolation-filters="sRGB"><feGaussianBlur stdDeviation=".228"/></filter></defs><metadata/><g id="g1000" clip-path="url(#clipPath3843-4-4)" transform="matrix(0.23076923,0,0,0.23076922,65.904067,-6.8512919)" style="enable-background:new"><path style="enable-background:accumulate;fill-rule:nonzero;fill:url(#radialGradient6380)" d="m-107,103.5c0,43.907-35.593,79.5-79.5,79.5s-79.5-35.593-79.5-79.5,35.593-79.5,79.5-79.5,79.5,35.593,79.5,79.5z" transform="matrix(1.4716981,0,0,1.4716981,403.4717,15.679244)"/><path style="stroke-linejoin:miter;enable-background:accumulate;stroke-dashoffset:0;filter:url(#filter5723-5-5);stroke:#000;stroke-linecap:butt;stroke-miterlimit:4;stroke-dasharray:none;stroke-width:3.3125;fill:none" d="m-107,103.5c0,43.907-35.593,79.5-79.5,79.5s-79.5-35.593-79.5-79.5,35.593-79.5,79.5-79.5,79.5,35.593,79.5,79.5z" clip-path="none" transform="matrix(1.4716981,0,0,1.4716981,403.4717,15.679244)"/><path style="opacity:.3;enable-background:accumulate;fill-rule:nonzero;fill:url(#radialGradient6382)" d="m16.461,165.1c-0.02443,0.96519-0.04592,1.9264-0.04592,2.8974,0,62.147,50.438,112.58,112.58,112.58,62.147,0,112.58-50.438,112.58-112.58,0-0.97104-0.0215-1.9322-0.0459-2.8974-1.58,60.77-51.38,109.6-112.53,109.6-61.145,0-110.95-48.83-112.54-109.6z"/><path style="opacity:.484375;enable-background:accumulate;fill-rule:nonzero;filter:url(#filter5750-6-6);fill:url(#radialGradient6384)" d="m-262.97,106c-0.0166-0.65583-0.0312-1.3089-0.0312-1.9688,0-42.228,34.272-76.5,76.5-76.5s76.5,34.272,76.5,76.5c0,0.65981-0.0146,1.3129-0.0312,1.9688-1.0804-41.288-34.921-74.469-76.469-74.469-41.547,0.00001-75.388,33.181-76.469,74.469z" transform="matrix(1.4716981,0,0,1.4716981,403.4717,15.679244)"/><g style="enable-background:new"><path style="enable-background:new;fill-rule:nonzero;color:#bebebe;filter:url(#filter5422-7);fill:#000" d="m-1935.7,69.586-10.503-12.688-16.296,2.4014,8.8218-13.91-7.3194-14.756,15.955,4.0916,11.772-11.521,1.0391,16.439,14.595,7.6355-15.313,6.0681z" transform="matrix(2.4375001,0,0,2.4375001,-360.93752,-66.000021) matrix(1.4108167,0,0,1.4108167,2940.806,32.102438)"/><g clip-path="url(#clipPath5380-6)" transform="matrix(2.4375001,0,0,2.4375001,-360.93752,-66.000021)"><path style="enable-background:new;fill-rule:nonzero;color:#bebebe;stroke:url(#radialGradient6388);stroke-miterlimit:4;stroke-dasharray:none;stroke-width:2.12642789;fill:url(#radialGradient6386)" d="m-1935.7,69.586-10.503-12.688-16.296,2.4014,8.8218-13.91-7.3194-14.756,15.955,4.0916,11.772-11.521,1.0391,16.439,14.595,7.6355-15.313,6.0681z" transform="matrix(1.4108167,0,0,1.4108167,2940.806,31.102436)"/><path style="enable-background:new;color:#bebebe;filter:url(#filter5396-6);stroke:#937800;stroke-miterlimit:4;stroke-dasharray:none;stroke-width:.85057116;fill:none" d="m-1935.7,69.586-10.503-12.688-16.296,2.4014,8.8218-13.91-7.3194-14.756,15.955,4.0916,11.772-11.521,1.0391,16.439,14.595,7.6355-15.313,6.0681z" transform="matrix(1.4108167,0,0,1.4108167,2940.806,31.102438)"/></g></g></g><g id="g1010" clip-path="url(#clipPath3843-0)" transform="matrix(0.23076923,0,0,0.23076923,66.098921,-6.4615857)" style="enable-background:new"><path style="enable-background:accumulate;fill-rule:nonzero;fill:url(#radialGradient4731)" d="m-107,103.5c0,43.907-35.593,79.5-79.5,79.5s-79.5-35.593-79.5-79.5,35.593-79.5,79.5-79.5,79.5,35.593,79.5,79.5z" transform="matrix(1.4716981,0,0,1.4716981,403.4717,15.679244)"/><path style="stroke-linejoin:miter;enable-background:accumulate;stroke-dashoffset:0;filter:url(#filter5723-0);stroke:url(#linearGradient4733);stroke-linecap:butt;stroke-miterlimit:4;stroke-dasharray:none;stroke-width:3.3125;fill:none" d="m-107,103.5c0,43.907-35.593,79.5-79.5,79.5s-79.5-35.593-79.5-79.5,35.593-79.5,79.5-79.5,79.5,35.593,79.5,79.5z" clip-path="none" transform="matrix(1.4716981,0,0,1.4716981,403.4717,15.679244)"/><path style="enable-background:accumulate;fill-rule:nonzero;fill:url(#radialGradient4735)" d="m16.461,165.1c-0.02443,0.96519-0.04592,1.9264-0.04592,2.8974,0,62.147,50.438,112.58,112.58,112.58,62.147,0,112.58-50.438,112.58-112.58,0-0.97104-0.0215-1.9322-0.0459-2.8974-1.58,60.77-51.38,109.6-112.53,109.6-61.145,0-110.95-48.83-112.54-109.6z"/><path style="enable-background:accumulate;fill-rule:nonzero;filter:url(#filter5750-9);fill:url(#radialGradient4737)" d="m-262.97,106c-0.0166-0.65583-0.0312-1.3089-0.0312-1.9688,0-42.228,34.272-76.5,76.5-76.5s76.5,34.272,76.5,76.5c0,0.65981-0.0146,1.3129-0.0312,1.9688-1.0804-41.288-34.921-74.469-76.469-74.469-41.547,0.00001-75.388,33.181-76.469,74.469z" transform="matrix(1.4716981,0,0,1.4716981,403.4717,15.679244)"/><g style="enable-background:new"><path style="opacity:.3;enable-background:new;fill-rule:nonzero;color:#bebebe;filter:url(#filter5186-0);fill:#000" d="m-1449.7,307.58-8.7457-4.1139-6.3164,7.3155-4.6573-8.4688-9.41,2.2057,1.21-9.589-8.9093-3.7466,6.6151-7.0464-5.0055-8.2678,9.4935-1.8124,0.8102-9.631,8.7457,4.1139,6.3164-7.3155,4.6573,8.4688,9.41-2.2057-1.21,9.589,8.9093,3.7466-6.6151,7.0464,5.0055,8.2678-9.4935,1.8124z" transform="matrix(2.4375001,0,0,2.4375001,82.687501,-66.000031) matrix(1.5055475,-0.40341024,0.40341024,1.5055475,2104.0736,-923.6638)"/><g clip-path="url(#clipPath5084-4)" transform="matrix(2.4375001,0,0,2.4375001,82.687501,-66.000031) translate(-70,0)"><path style="enable-background:new;fill-rule:nonzero;color:#bebebe;fill:url(#radialGradient4739)" d="m-1449.7,307.58-8.7457-4.1139-6.3164,7.3155-4.6573-8.4688-9.41,2.2057,1.21-9.589-8.9093-3.7466,6.6151-7.0464-5.0055-8.2678,9.4935-1.8124,0.8102-9.631,8.7457,4.1139,6.3164-7.3155,4.6573,8.4688,9.41-2.2057-1.21,9.589,8.9093,3.7466-6.6151,7.0464,5.0055,8.2678-9.4935,1.8124z" transform="matrix(1.5055475,-0.40341024,0.40341024,1.5055475,2174.0736,-924.6638)"/><path style="enable-background:new;color:#bebebe;filter:url(#filter5088-5);stroke:#c4a000;stroke-dasharray:none;stroke-miterlimit:4;stroke-width:.64157778;fill:none" d="m-1449.7,307.58-8.7457-4.1139-6.3164,7.3155-4.6573-8.4688-9.41,2.2057,1.21-9.589-8.9093-3.7466,6.6151-7.0464-5.0055-8.2678,9.4935-1.8124,0.8102-9.631,8.7457,4.1139,6.3164-7.3155,4.6573,8.4688,9.41-2.2057-1.21,9.589,8.9093,3.7466-6.6151,7.0464,5.0055,8.2678-9.4935,1.8124z" transform="matrix(1.5055475,-0.40341024,0.40341024,1.5055475,2174.0736,-924.6638)"/></g><path style="opacity:.5413223;enable-background:new;color:#bebebe;stroke:url(#radialGradient4741);stroke-miterlimit:4;stroke-dasharray:none;stroke-width:.64157778;fill:none" d="m-1459.7,262.62-5.5313,6.4375a0.80855,0.80855,0,0,1,-0.9687,0.1875l-7.6875-3.5938-0.7188,8.4688a0.80855,0.80855,0,0,1,-0.6562,0.71875l-8.3438,1.5938,4.4063,7.2812a0.80855,0.80855,0,0,1,-0.094,0.96875l-5.8126,6.2188,7.8126,3.2812a0.80855,0.80855,0,0,1,0.5,0.84375l-1.0313,8.4375,8.25-1.9375a0.80855,0.80855,0,0,1,0.9063,0.40625l4.0937,7.4375,5.5313-6.4375a0.80855,0.80855,0,0,1,0.9687,-0.1875l7.6875,3.5938,0.7188-8.4688a0.80855,0.80855,0,0,1,0.6562,-0.71875l8.3438-1.5938-4.4063-7.2812a0.80855,0.80855,0,0,1,0.094,-0.96875l5.8126-6.2188-7.8126-3.2812a0.80855,0.80855,0,0,1,-0.5,-0.84375l1.0313-8.4375-8.25,1.9375a0.80855,0.80855,0,0,1,-0.9063,-0.40625l-4.0937-7.4375z" transform="matrix(2.4375001,0,0,2.4375001,82.687501,-66.000031) matrix(1.5055475,-0.40341024,0.40341024,1.5055475,2104.0736,-924.6638)"/><path style="enable-background:new;color:#bebebe;stroke:url(#radialGradient4743);stroke-width:1.86712968;fill:none" d="m-1427.3,287.1c0,18.843-15.275,34.118-34.118,34.118s-34.118-15.275-34.118-34.118,15.275-34.118,34.118-34.118,34.118,15.275,34.118,34.118z" transform="matrix(2.4375001,0,0,2.4375001,82.687501,-66.000031) matrix(0.75990841,0,0,0.75990841,1129.5399,-122.16612)"/></g></g><path id="path1020" d="M59,32a27,27,0,1,1,-54,0,27,27,0,1,1,54,0z" transform="translate(64,0)" style="stroke-opacity:0;stroke-miterlimit:4;fill:#000"/><path id="path1030" d="M59,32a27,27,0,1,1,-54,0,27,27,0,1,1,54,0z" transform="translate(64,0)" style="stroke-dashoffset:0;stroke:#000;stroke-miterlimit:4;stroke-dasharray:none;stroke-width:.1;fill:#f0f0ff"/><g transform="matrix(0.707,0.707,-0.707,0.707,50.775565,-58.5)"><use width="512" height="256" x="0" y="0" transform="translate(0.25,0.25)" xlink:href="#path1030"/><use width="512" height="256" x="0" y="0" xlink:href="#g1000"/></g><g transform="matrix(0.703,0.703,-0.707,0.707,114.7,-59.2)"><use width="512" height="256" x="0" y="0" xlink:href="#g1000"/></g><g transform="matrix(0.692,0.692,-0.707,0.707,180,-58.8)"><use width="512" height="256" x="0" y="0" transform="translate(-0.5,0)" xlink:href="#path1030"/><use width="512" height="256" x="0" y="0" xlink:href="#g1000"/></g><g transform="matrix(0.672,0.672,-0.707,0.707,246,-57.2)"><use width="512" height="256" x="0" y="0" transform="translate(-0.5,0)" xlink:href="#path1030"/><use width="512" height="256" x="0" y="0" xlink:href="#path1020"/><use width="512" height="256" x="0" y="0" transform="translate(0.5,0)" xlink:href="#g1000"/></g><g transform="matrix(0.646,0.646,-0.707,0.707,312.5,-55.3)"><use width="512" height="256" x="0" y="0" transform="translate(-1,0)" xlink:href="#path1030"/><use width="512" height="256" x="0" y="0" xlink:href="#path1020"/><use width="512" height="256" x="0" y="0" transform="translate(1,0)" xlink:href="#g1000"/></g><g transform="matrix(0.612,0.612,-0.707,0.707,380,-52.8)"><use width="512" height="256" x="0" y="0" transform="translate(-1.5,0)" xlink:href="#path1030"/><use width="512" height="256" x="0" y="0" xlink:href="#path1020"/><use width="512" height="256" x="0" y="0" transform="translate(1.5,0)" xlink:href="#g1000"/></g><g transform="matrix(0.572,0.572,-0.707,0.707,447.7,-49.6)"><use width="512" height="256" x="0" y="0" transform="translate(-2,0)" xlink:href="#path1030"/><use width="512" height="256" x="0" y="0" xlink:href="#path1020"/><use width="512" height="256" x="0" y="0" transform="translate(2,0)" xlink:href="#g1000"/></g><g transform="matrix(0.525,0.525,-0.707,0.707,4.2,18.3)"><use width="512" height="256" x="0" y="0" transform="translate(-2.5,0)" xlink:href="#path1030"/><use width="512" height="256" x="0" y="0" xlink:href="#path1020"/><use width="512" height="256" x="0" y="0" transform="translate(2.5,0)" xlink:href="#g1000"/></g><g transform="matrix(0.473,0.473,-0.707,0.707,73.5,22.8)"><use width="512" height="256" x="0" y="0" transform="translate(-3,0)" xlink:href="#path1030"/><use width="512" height="256" x="0" y="0" xlink:href="#path1020"/><use width="512" height="256" x="0" y="0" transform="translate(3,0)" xlink:href="#g1000"/></g><g transform="matrix(0.416,0.416,-0.707,0.707,143,27.8)"><use width="512" height="256" x="0" y="0" transform="translate(-4,0)" xlink:href="#path1030"/><use width="512" height="256" x="0" y="0" xlink:href="#path1020"/><use width="512" height="256" x="0" y="0" transform="translate(4,0)" xlink:href="#g1000"/></g><g transform="matrix(0.354,0.354,-0.707,0.707,212.7,33.4)"><use width="512" height="256" x="0" y="0" transform="translate(-5,0)" xlink:href="#path1030"/><use width="512" height="256" x="0" y="0" xlink:href="#path1020"/><use width="512" height="256" x="0" y="0" transform="translate(5,0)" xlink:href="#g1000"/></g><g transform="matrix(0.288,0.288,-0.707,0.707,283,39.3)"><use width="512" height="256" x="0" y="0" transform="translate(-6,0)" xlink:href="#path1030"/><use width="512" height="256" x="0" y="0" xlink:href="#path1020"/><use width="512" height="256" x="0" y="0" transform="translate(6,0)" xlink:href="#g1000"/></g><g transform="matrix(0.218,0.218,-0.707,0.707,353.7,45.8)"><use width="512" height="256" x="0" y="0" transform="translate(-8,0)" xlink:href="#path1030"/><use width="512" height="256" x="0" y="0" xlink:href="#path1020"/><use width="512" height="256" x="0" y="0" transform="translate(8,0)" xlink:href="#g1000"/></g><g transform="matrix(0.147,0.147,-0.707,0.707,424.5,52.5)"><use width="512" height="256" x="0" y="0" transform="translate(-12,0)" xlink:href="#path1030"/><use width="512" height="256" x="0" y="0" transform="translate(-6,0)" xlink:href="#path1030"/><use width="512" height="256" x="0" y="0" xlink:href="#path1020"/><use width="512" height="256" x="0" y="0" transform="translate(6,0)" xlink:href="#path1020"/><use width="512" height="256" x="0" y="0" transform="translate(12,0)" xlink:href="#g1000"/></g><g transform="matrix(7.4e-2,7.4e-2,-0.707,0.707,495.5,59.3)"><use width="512" height="256" x="0" y="0" transform="translate(-24,0)" xlink:href="#path1030"/><use width="512" height="256" x="0" y="0" transform="translate(-12,0)" xlink:href="#path1030"/><use width="512" height="256" x="0" y="0" xlink:href="#path1020"/><use width="512" height="256" x="0" y="0" transform="translate(12,0)" xlink:href="#path1020"/><use width="512" height="256" x="0" y="0" transform="translate(24,0)" xlink:href="#g1000"/></g><g transform="translate(0,119)"><rect style="stroke-dashoffset:0;stroke:#000;stroke-dasharray:none;stroke-miterlimit:4;stroke-width:.05000006;fill:#1a1a1a" width="2.8" height="54" x="45.5" y="-27" transform="matrix(0.707107,0.707107,-0.707107,0.707107,0,0)"/><rect style="stroke-dashoffset:0;stroke:#000;stroke-dasharray:none;stroke-miterlimit:4;stroke-width:.05;fill:#f0f0ff" width="2.8" height="54" x="43" y="-27" transform="matrix(0.707107,0.707107,-0.707107,0.707107,0,0)"/></g><g transform="matrix(7.4e-2,7.4e-2,-0.707,0.707,111.5,123.3)"><use width="512" height="256" x="0" y="0" transform="translate(24,0)" xlink:href="#path1020"/><use width="512" height="256" x="0" y="0" transform="translate(12,0)" xlink:href="#path1020"/><use width="512" height="256" x="0" y="0" xlink:href="#path1030"/><use width="512" height="256" x="0" y="0" transform="translate(-12,0)" xlink:href="#path1030"/><use width="512" height="256" x="0" y="0" transform="translate(-24,0)" xlink:href="#g1010"/></g><g transform="matrix(0.147,0.147,-0.707,0.707,168.5,116.5)"><use width="512" height="256" x="0" y="0" transform="translate(12,0)" xlink:href="#path1020"/><use width="512" height="256" x="0" y="0" transform="translate(6,0)" xlink:href="#path1020"/><use width="512" height="256" x="0" y="0" xlink:href="#path1030"/><use width="512" height="256" x="0" y="0" transform="translate(-6,0)" xlink:href="#path1030"/><use width="512" height="256" x="0" y="0" transform="translate(-12,0)" xlink:href="#g1010"/></g><g transform="matrix(0.218,0.218,-0.707,0.707,225.7,109.8)"><use width="512" height="256" x="0" y="0" transform="translate(8,0)" xlink:href="#path1020"/><use width="512" height="256" x="0" y="0" xlink:href="#path1030"/><use width="512" height="256" x="0" y="0" transform="translate(-8,0)" xlink:href="#g1010"/></g><g transform="matrix(0.288,0.288,-0.707,0.707,283,103.3)"><use width="512" height="256" x="0" y="0" transform="translate(6,0)" xlink:href="#path1020"/><use width="512" height="256" x="0" y="0" xlink:href="#path1030"/><use width="512" height="256" x="0" y="0" transform="translate(-6,0)" xlink:href="#g1010"/></g><g transform="matrix(0.354,0.354,-0.707,0.707,340.7,97.4)"><use width="512" height="256" x="0" y="0" transform="translate(5,0)" xlink:href="#path1020"/><use width="512" height="256" x="0" y="0" xlink:href="#path1030"/><use width="512" height="256" x="0" y="0" transform="translate(-5,0)" xlink:href="#g1010"/></g><g transform="matrix(0.416,0.416,-0.707,0.707,399,91.8)"><use width="512" height="256" x="0" y="0" transform="translate(4,0)" xlink:href="#path1020"/><use width="512" height="256" x="0" y="0" xlink:href="#path1030"/><use width="512" height="256" x="0" y="0" transform="translate(-4,0)" xlink:href="#g1010"/></g><g transform="matrix(0.473,0.473,-0.707,0.707,457.3,86.8)"><use width="512" height="256" x="0" y="0" transform="translate(3,0)" xlink:href="#path1020"/><use width="512" height="256" x="0" y="0" xlink:href="#path1030"/><use width="512" height="256" x="0" y="0" transform="translate(-3,0)" xlink:href="#g1010"/></g><g transform="matrix(0.525,0.525,-0.707,0.707,4.2,146.3)"><use width="512" height="256" x="0" y="0" transform="translate(2.5,0)" xlink:href="#path1020"/><use width="512" height="256" x="0" y="0" xlink:href="#path1030"/><use width="512" height="256" x="0" y="0" transform="translate(-2.5,0)" xlink:href="#g1010"/></g><g transform="matrix(0.572,0.572,-0.707,0.707,63.7,142.4)"><use width="512" height="256" x="0" y="0" transform="translate(2,0)" xlink:href="#path1020"/><use width="512" height="256" x="0" y="0" xlink:href="#path1030"/><use width="512" height="256" x="0" y="0" transform="translate(-2,0)" xlink:href="#g1010"/></g><g transform="matrix(0.612,0.612,-0.707,0.707,124,139.2)"><use width="512" height="256" x="0" y="0" transform="translate(1.5,0)" xlink:href="#path1020"/><use width="512" height="256" x="0" y="0" xlink:href="#path1030"/><use width="512" height="256" x="0" y="0" transform="translate(-1.5,0)" xlink:href="#g1010"/></g><g transform="matrix(0.646,0.646,-0.707,0.707,184.5,136.7)"><use width="512" height="256" x="0" y="0" transform="translate(1.5,0)" xlink:href="#path1020"/><use width="512" height="256" x="0" y="0" xlink:href="#path1030"/><use width="512" height="256" x="0" y="0" transform="translate(-1.5,0)" xlink:href="#g1010"/></g><g transform="matrix(0.672,0.672,-0.707,0.707,246,134.8)"><use width="512" height="256" x="0" y="0" transform="translate(1.5,0)" xlink:href="#path1020"/><use width="512" height="256" x="0" y="0" xlink:href="#path1030"/><use width="512" height="256" x="0" y="0" transform="translate(-1,0)" xlink:href="#g1010"/></g><g transform="matrix(0.692,0.692,-0.707,0.707,308,133.2)"><use width="512" height="256" x="0" y="0" transform="translate(1.5,0)" xlink:href="#path1020"/><use width="512" height="256" x="0" y="0" transform="translate(0.5,0)" xlink:href="#path1030"/><use width="512" height="256" x="0" y="0" transform="translate(-0.5,0)" xlink:href="#g1010"/></g><g transform="matrix(0.703,0.703,-0.707,0.707,370.7,132.8)"><use width="512" height="256" x="0" y="0" transform="translate(1,0)" xlink:href="#path1020"/><use width="512" height="256" x="0" y="0" transform="translate(0.5,0)" xlink:href="#path1030"/><use width="512" height="256" x="0" y="0" xlink:href="#g1010"/></g><g transform="matrix(0.707,0.707,-0.707,0.707,434.5,133.5)"><use width="512" height="256" x="0" y="0" transform="translate(0.5,0)" xlink:href="#path1020"/><use width="512" height="256" x="0" y="0" xlink:href="#g1010"/></g></svg>